<svg width="243" height="315" viewBox="0 0 243 315" fill="none" xmlns="http://www.w3.org/2000/svg">
<g clip-path="url(#clip0_353_8573)">
<path d="M1.03227 176.99C1.72976 185.709 1.30352 212.384 5.01184 233.457C5.84108 238.165 5.60471 243.788 6.66257 247.566C6.66257 247.566 10.1074 266.84 12.1534 285.546C14.2071 304.252 15.5517 304.92 15.5517 304.92C15.5517 304.92 45.2415 314.194 79.8642 314.85C112.972 315.483 138 313.905 138 313.905L135.365 274.995L131.494 252.958L80.0502 245.154L16.7956 173.162C16.7956 173.162 0.172034 166.315 1.03227 176.99Z" fill="#F3AF81"/>
<path d="M59.4771 87C61.2172 98.9008 74.5463 131.413 87.5853 136.635C100.624 141.86 105.551 132.859 107.291 112.833L120.33 109.933C120.33 109.933 140.612 165.956 138.875 185.692C137.135 205.431 128.733 209.202 128.733 209.202C128.733 209.202 153.442 215.207 162.834 217.413C172.239 219.619 197.234 220.27 200.471 226.406C203.707 232.547 201.364 246.091 197.563 253.158C197.563 253.158 189.736 255.282 180.05 254.968C170.363 254.658 97.5309 251.1 85.7138 246.824C73.9005 242.544 59.7594 236.908 51.6892 224.034C43.6152 211.168 1.86473 176.935 1.86473 176.935C1.86473 176.935 0.631203 147.376 1.11069 136.417C1.58245 125.466 2.05421 116.899 11.2109 106.58C20.3677 96.2648 27.5368 92.5318 35.0385 91.7913C44.2339 90.8842 47.6909 90.3997 59.4771 87Z" fill="#F3AF81"/>
<path d="M108.216 114.598C108.062 122.691 105.353 133.483 100.24 136.777C95.1268 140.076 89.5596 140.076 83.6923 134.231C77.8249 128.386 59.3188 102.46 61.1233 88.2238C61.1233 88.2238 77.3709 73.3893 79.1792 64.8445C79.1792 64.8445 74.0622 51.6553 79.1792 46.8652C84.2963 42.0674 91.364 47.0109 91.9642 56.154C92.5683 65.2932 91.9642 61.4005 91.9642 61.4005C91.9642 61.4005 99.9399 55.5519 109.266 58.551C118.592 61.5463 130.481 59.901 133.486 57.504C136.498 55.107 147.479 46.5622 147.479 46.5622C147.479 46.5622 155.004 54.804 150.637 64.8445C146.274 74.885 147.179 78.3329 144.174 82.2294C141.161 86.1221 138.603 94.6669 134.24 99.7639C129.877 104.857 119.796 113.252 116.938 114C114.083 114.748 111.221 114.449 108.216 114.598Z" fill="#F9EBE0"/>
<path d="M92.6629 63.7773C97.5609 61.7988 105.407 61.5983 113.009 63.9249C124.02 67.2917 132.466 66.2514 135.466 63.0245C138.466 59.7939 146 47 146 47C146 47 128.95 60.157 117.453 57.7398C105.956 55.3149 95.6782 53.1927 91.7275 55.7424C87.7728 58.2883 88.1477 63.3915 92.6629 63.7773Z" fill="#FCC8BA"/>
<path d="M78.0113 45.1544C78.0113 35.5948 77.3621 21.7053 85.9143 12.7812C94.4587 3.86097 110.778 -4.67642 126.059 5.8977C126.059 5.8977 128.908 2.45594 139.913 10.109C150.922 17.7543 161.154 30.882 162.709 42.8611C164.264 54.8441 159.082 59.8134 159.082 59.8134C159.082 59.8134 159.471 66.1877 155.844 70.1349C152.217 74.0858 141.985 76 141.985 76C141.985 76 149.756 67.8416 150.017 60.1924C150.273 52.5471 146.65 45.407 146.65 45.407C146.65 45.407 143.023 51.0195 138.491 56.1152C133.958 61.2146 132.664 68.9902 132.664 68.9902C132.664 68.9902 130.075 62.1066 132.403 57.39C132.403 57.39 129.686 61.4711 123.47 61.4711C117.25 61.4711 110.389 57.0187 104.301 57.1412C98.2139 57.2713 92.1263 57.5164 88.7598 61.0845C88.7598 61.0845 91.0922 52.0379 87.7219 48.3435C84.3593 44.6452 82.2835 44.0097 78.0113 45.1544Z" fill="#4A3E3E"/>
<path d="M139 92.5998C142.606 97.6116 144.304 102.22 149.704 110.819C155.107 119.418 164.741 127.717 171.71 120.462C178.678 113.208 179.033 114.79 180.971 119.014C182.913 123.235 181.363 130.044 173.572 134.76L175.743 149.665C175.743 149.665 181.359 148.67 183.545 155.111C183.545 155.111 207.089 159.585 218.006 183C218.006 183 228.136 172.627 222.058 157.542C215.981 142.46 208.65 136.016 202.105 131.615C195.555 127.218 191.968 117.159 191.187 109.459C190.411 101.763 183.549 85.7331 177.155 79.2926C170.766 72.8484 163.127 68.766 157.666 70.3367C152.21 71.9075 146.757 76.3086 144.571 81.3358C142.389 86.3629 140.828 89.5082 139 92.5998Z" fill="#4A3E3E"/>
<path d="M116.766 113.743C116.766 113.743 114.252 129.222 118.335 135.796C122.421 142.37 125.982 146.93 128.077 153.393C130.171 159.859 130.595 161.77 128.285 168.979C125.982 176.185 124.1 182.656 130.595 189.547L133.944 194L135.517 185.519C135.517 185.519 133.313 180.217 134.783 176.507C136.25 172.797 144 163.994 144 163.994L143.478 158.696C143.478 158.696 139.913 158.167 135.199 154.986C130.489 151.804 122.841 140.674 121.896 135.478C120.954 130.283 120.641 124.134 120.535 121.695C120.429 119.256 118.966 113 118.966 113L116.766 113.743Z" fill="#4A3E3E"/>
<path d="M118 113.359C118.965 117.255 119.212 130.998 121.283 136.776C123.35 142.551 131.211 155.85 139.62 158.806C139.62 158.806 143.755 157.598 144.582 162.703C145.41 167.804 144.72 185 144.72 185C144.72 185 163.336 174.656 168.576 168.882C173.816 163.104 177.264 153.701 177.264 153.701L173.263 134.226C173.263 134.226 180.712 131.675 180.987 124.284C181.261 116.896 177.264 115.018 175.06 116.896C172.851 118.777 173.816 121.733 168.851 122.808C163.889 123.882 157.13 123.209 152.443 116.762C147.756 110.315 141.962 97.9559 137.965 95C137.965 95 123.782 109.596 118 113.359Z" fill="#F9EBE0"/>
<path d="M133.638 123.151C134.522 124.134 137.053 129.36 135.514 131.38C133.975 133.396 130.661 130.013 131.028 128.116C131.404 126.212 132.742 122.172 133.638 123.151Z" fill="#FDACA9"/>
<path d="M144.032 124.833C143.755 123.243 145.311 121.577 147.506 121.118C149.694 120.659 151.696 121.577 151.969 123.167C152.242 124.757 150.686 126.423 148.495 126.882C146.303 127.341 144.301 126.423 144.032 124.833Z" fill="#FDACA9"/>
<path d="M121.018 127.168C120.786 125.268 122.831 123.431 125.581 123.065C128.335 122.695 130.75 123.932 130.982 125.832C131.214 127.728 129.169 129.565 126.419 129.935C123.669 130.305 121.246 129.064 121.018 127.168Z" fill="#FDACA9"/>
<path d="M136 97.2224C136 97.2224 147.036 119.535 158.072 123.941C165.748 127.002 172.786 122.776 173 119.504C169.422 122.143 173.416 122.354 166.479 122.354C159.545 122.354 154.393 117.6 151.134 112.427C147.876 107.255 138.73 93 138.73 93L136 97.2224Z" fill="#FCC8BA"/>
<path d="M145.913 167.904C149.907 168.867 158.842 162.553 160 151L144 158.571C144 158.571 145.022 164.822 145.913 167.904Z" fill="#FCC8BA"/>
<path d="M131 140.587L146.835 138C146.835 138 147.832 141.537 144.928 144.235C142.016 146.936 137.767 147.679 135.394 146.372C133.025 145.062 131 140.587 131 140.587Z" fill="#EFEFEF"/>
<path d="M141 75C142.891 72.2366 148.613 61.0003 146.806 54.4655L145.366 49.6977L148.534 45C148.534 45 152.169 56.213 151.994 61.1365C151.814 66.056 147.206 74.7314 141 75Z" fill="#FCC8BA"/>
<path d="M86.6164 92C84.4068 101.7 88.3794 124.509 94.678 129.136C100.969 133.763 103.508 132.662 105.497 126.712C107.481 120.759 106.93 114.041 106.93 114.041C106.93 114.041 100.639 109.961 96.6623 105.113C92.6898 100.265 90.5889 94.8662 86.6164 92Z" fill="#FCC8BA"/>
<path d="M124.3 94C121.769 93.4719 123.144 88.3123 126.615 86C126.615 86 128.138 89.2399 127.99 90.4317C127.849 91.62 126.474 92.6119 124.3 94Z" fill="#FDACA9"/>
<path d="M107.142 82.469C107.758 81.0445 110.211 80.5757 112.617 81.4196C115.022 82.2671 116.475 84.1063 115.858 85.5344C115.238 86.9553 112.789 87.4242 110.38 86.5803C107.974 85.7364 106.526 83.8935 107.142 82.469Z" fill="#FDACA9"/>
<path d="M131 91.4066C131.024 89.4737 132.838 87.9511 135.044 88.0012C137.255 88.0468 139.024 89.656 139 91.5889C138.976 93.5172 137.166 95.0489 134.956 94.9988C132.745 94.9487 130.976 93.3394 131 91.4066Z" fill="#FDACA9"/>
<path d="M116.252 46.1052C105.543 47.0828 108.146 50.642 114.731 50.9891C120.477 51.2938 126.961 45.1276 116.252 46.1052Z" fill="#3B2F2F"/>
<path d="M112.455 42.2173C101.617 43.8819 106.29 45.7991 112.916 44.652C118.182 43.7495 118.694 41.2546 112.455 42.2173Z" fill="#3B2F2F"/>
<path d="M128 209.978C130.495 201.53 138.189 182.589 133.817 186.846C133.017 181.438 135.22 175.068 138.663 170.718C142.113 166.372 145.082 163.479 145.082 163.479L144.93 184.181C144.93 184.181 149.78 180.967 156.409 176.756C163.042 172.541 171.171 164.363 174.008 160.423C176.841 156.483 176.973 153.137 176.973 153.137L176.242 149C176.242 149 182.553 150.719 184.317 155.532C184.317 155.532 199.876 158.152 210.542 171.182C221.209 184.219 222.996 193.958 226.983 207.668C226.983 207.668 227.364 209.843 224.492 210.504C221.617 211.172 215.493 214.626 211.798 218.195C208.102 221.768 204.686 226.072 199.619 224.758C194.548 223.441 186.532 220.324 181.624 220.559C176.716 220.795 145.587 212.999 145.587 212.999C145.587 212.999 134.54 213.521 128 209.978Z" fill="#EFEFEF"/>
<path d="M83.0498 248.239C74.724 247.245 77.838 249.648 72.5486 250.093C67.2631 250.534 57.1806 249.084 58.0532 251.554C58.7395 253.502 61.5936 261.116 60.9654 265.74C60.3488 270.214 59.8137 272.435 58.1734 274.539C58.1734 274.539 63.6644 277.122 72.4167 278.419C81.5607 278.012 99.3445 281.35 116.159 279.365C125.745 278.236 133.489 276.274 138.604 274.909C152.688 271.145 175.285 264.753 180 257.116C180 257.116 91.3755 249.233 83.0498 248.239Z" fill="#EFEFEF"/>
<path d="M137.292 274.616L137 291.431L138.805 314C138.805 314 174.646 313.516 195.663 311.203C214.051 309.18 228.733 304.262 228.733 304.262L232 248L200.531 250.41C200.531 250.41 198.699 255.847 195.67 255.41C192.641 254.976 180.411 255.312 180.411 255.312C180.411 255.312 175.443 262.394 169.547 265.3C163.658 268.206 137.292 274.616 137.292 274.616Z" fill="#EFEFEF"/>
<path d="M221.24 179.493C221.24 179.493 215.589 190.356 219.213 193.051C219.213 193.051 220.804 199.102 223.847 198.594C223.847 198.594 222.253 203.036 225.732 203.036C225.732 203.036 226.309 208.653 232.832 204.422C239.35 200.195 241.376 195.603 240.944 193.416C240.505 191.23 238.555 190.864 238.555 190.864C238.555 190.864 238.842 187.515 235.435 186.491C235.435 186.491 233.841 178.984 230.656 178.399C230.656 178.399 231.092 175.266 228.335 173.884C225.587 172.498 224.061 173.156 224.061 173.156L221.24 179.493Z" fill="#F9EBE0"/>
<path d="M201.695 225.304C206.116 224.119 216.135 213.46 221.254 211.433C226.373 209.409 229.736 208.12 231.201 207.212C232.666 206.307 233.534 208.451 232.858 210.829C232.183 213.207 239.616 214.165 236.237 221.572C236.237 221.572 241.696 226.066 237.268 232.277C237.268 232.277 239.608 238.437 235.875 242.166C235.875 242.166 237.536 245.775 233.489 247.256C229.442 248.734 200 250 200 250C200 250 202.197 244.213 202.541 236.956C202.884 229.699 202.22 228.687 201.695 225.304Z" fill="#F9EBE0"/>
<path d="M158.307 99.5727C152.995 88.9297 150.552 92.8667 152.884 99.7426C154.927 105.744 163.615 110.216 158.307 99.5727Z" fill="#3B2F2F"/>
<path d="M160.766 93.454C156.148 83.7094 156.056 88.8453 158.978 94.7621C161.295 99.4594 163.427 99.0649 160.766 93.454Z" fill="#3B2F2F"/>
<path d="M59.5706 273C53.7846 270.48 49.5648 271.582 43.5279 271.515C37.491 271.445 22.9309 272.473 19.1483 272.019C15.3658 271.57 9.67478 268.703 9.87627 264.479C9.87627 264.479 5.73254 259.498 7.35202 255.404C7.35202 255.404 1.78269 253.498 6.44344 246.927C6.44344 246.927 9.26802 251.611 11.99 251.083C14.7081 250.564 14.864 248.845 12.9556 247.247C11.0472 245.653 8.18456 243.977 6.12791 241.02C4.07125 238.066 3.08284 233.644 5.11668 233.199C7.15814 232.749 10.9293 237.758 15.0046 239.852C19.0761 241.946 25.8391 245.204 26.4474 244.149C27.0556 243.094 24.98 240.067 21.3152 238.398C19.3992 237.523 12.9023 234.277 14.2101 230.968C15.5102 227.659 25.5882 233.796 31.5453 235.039C36.8447 236.152 41.7906 240.645 44.5771 243.629C48.3521 247.685 47.7667 248.751 51.2869 249.364C54.8072 249.974 58.8065 251.001 58.8065 251.001C58.8065 251.001 60.8631 255.373 61.5208 260.124C62.1823 264.878 62.6233 267.972 59.5706 273Z" fill="#F9EBE0"/>
<path d="M172.705 136C172.392 136 172.107 135.757 172.025 135.391C171.922 134.959 172.146 134.511 172.52 134.395C175.687 133.416 179.053 129.17 180.188 124.723C180.751 122.534 181.003 119.399 179.046 116.897C178.302 115.943 177.149 115.457 176.174 115.687C175.612 115.823 174.868 116.243 174.495 117.506C174.37 117.934 173.965 118.16 173.598 118.016C173.228 117.872 173.032 117.407 173.157 116.979C173.612 115.424 174.584 114.4 175.89 114.091C177.366 113.741 179.018 114.416 180.096 115.807C181.964 118.193 182.48 121.526 181.544 125.188C180.263 130.207 176.541 134.84 172.89 135.971C172.826 135.992 172.765 136 172.705 136Z" fill="#2E2020"/>
<path d="M172.651 128C172.579 128 172.507 127.988 172.435 127.96C172.098 127.813 171.918 127.367 172.036 126.953C172.716 124.577 173.971 123.065 176.115 122.054C176.449 121.895 176.828 122.098 176.955 122.504C177.086 122.91 176.919 123.368 176.586 123.527C174.785 124.378 173.821 125.521 173.262 127.471C173.167 127.797 172.915 128 172.651 128Z" fill="#2E2020"/>
<path d="M164.645 122C163.763 122 162.897 121.914 162.042 121.746C159.38 121.207 156.882 119.871 154.404 117.666C149.974 113.715 146.551 107.757 143.526 102.503C141.633 99.2095 139.846 96.0959 138.183 94.2248C137.906 93.9104 137.949 93.4426 138.273 93.1769C138.597 92.9112 139.085 92.9487 139.366 93.263C141.126 95.2464 142.871 98.2777 144.885 101.784C150.809 112.09 158.186 124.923 170.886 119.01C171.269 118.834 171.733 118.984 171.921 119.358C172.112 119.725 171.944 120.17 171.562 120.346C169.196 121.45 166.878 122 164.645 122Z" fill="#2E2020"/>
<path d="M167.894 120C162.814 120 158.316 117.854 154.232 113.501C149.835 108.81 146.655 102.252 144.099 96.9858C142.294 93.2598 140.734 90.0405 139.199 88.3131C138.91 87.986 138.938 87.4833 139.271 87.1961C139.601 86.9089 140.107 86.9408 140.401 87.2679C142.073 89.1588 143.681 92.466 145.542 96.2997C150.635 106.799 157.608 121.181 172.027 117.934C172.457 117.838 172.883 118.105 172.979 118.532C173.08 118.955 172.806 119.382 172.38 119.477C170.833 119.824 169.337 120 167.894 120Z" fill="#2E2020"/>
<path d="M171.584 118C167.597 118 162.446 114.687 159.631 112.624C155.217 109.394 151.094 105.313 149.128 102.231C148.897 101.868 148.988 101.378 149.332 101.131C149.676 100.893 150.141 100.988 150.376 101.347C154.207 107.352 166.425 117.052 172.166 116.387C172.579 116.339 172.949 116.654 172.995 117.084C173.044 117.518 172.741 117.908 172.333 117.956C172.087 117.984 171.834 118 171.584 118Z" fill="#2E2020"/>
<path d="M177.321 153C177.153 153 176.979 152.927 176.852 152.784C175.293 151.091 174.872 147.852 173.942 140.753C173.679 138.759 173.381 136.499 173.008 133.885C172.95 133.468 173.2 133.075 173.573 133.009C173.942 132.944 174.291 133.225 174.352 133.646C174.725 136.264 175.019 138.532 175.283 140.529C176.141 147.069 176.572 150.351 177.793 151.681C178.063 151.974 178.07 152.46 177.81 152.765C177.676 152.923 177.495 153 177.321 153Z" fill="#2E2020"/>
<path d="M145.008 186C144.944 186 144.873 185.996 144.805 185.977C144.383 185.863 144.132 185.441 144.248 185.023C146.48 176.975 145.247 166.156 143.034 159.003C142.907 158.593 143.146 158.159 143.56 158.034C143.977 157.909 144.423 158.14 144.546 158.55C146.822 165.918 148.083 177.081 145.772 185.429C145.676 185.777 145.358 186 145.008 186Z" fill="#2E2020"/>
<path d="M153.501 202C153.482 202 153.459 202 153.44 202C153.227 201.981 153.032 201.872 152.902 201.696C151.648 200.018 151.427 197.242 151.19 194.303C150.965 191.433 150.729 188.466 149.612 186.041C148.788 184.265 148.242 184.032 148.048 184.016C147.293 183.95 145.951 185.881 144.658 187.75C144.25 188.338 143.83 188.945 143.369 189.584C143.121 189.93 142.644 190 142.305 189.751C141.969 189.498 141.901 189.015 142.149 188.669C142.599 188.042 143.014 187.442 143.419 186.858C145.238 184.23 146.557 182.33 148.174 182.478C149.226 182.572 150.088 183.467 150.977 185.383C152.22 188.061 152.475 191.312 152.704 194.178C152.883 196.432 153.051 198.582 153.673 200.003C155.56 198.157 161.086 192.636 166.768 185.725C175.924 174.594 181.362 164.911 182.483 157.724C182.609 151.054 175.71 149.59 175.417 149.532C175.005 149.45 174.738 149.045 174.818 148.625C174.902 148.208 175.295 147.935 175.703 148.013C175.79 148.037 177.842 148.449 179.886 149.839C182.658 151.724 184.077 154.48 183.997 157.813C183.997 157.848 183.997 157.883 183.989 157.914C182.822 165.491 177.415 175.19 167.916 186.734C160.88 195.288 154.085 201.731 154.016 201.794C153.875 201.93 153.696 202 153.501 202Z" fill="#2E2020"/>
<path d="M147.759 184C147.453 184 147.167 183.812 147.052 183.504C146.899 183.105 147.094 182.656 147.487 182.503C152.315 180.6 160.474 174.423 167.796 167.135C174.583 160.371 176.489 152.67 176.508 152.591C176.603 152.177 177.012 151.923 177.417 152.021C177.826 152.122 178.078 152.541 177.978 152.959C177.902 153.287 175.969 161.157 168.857 168.249C161.402 175.665 153.033 181.98 148.034 183.949C147.942 183.98 147.847 184 147.759 184Z" fill="#2E2020"/>
<path d="M131.924 190C131.91 190 131.891 190 131.873 190C131.365 189.978 130.973 189.626 131.001 189.223C131.001 189.215 131.001 189.212 131.001 189.208C131.039 188.617 131.784 178.435 134.603 174.28C137.399 170.155 144.124 164.472 144.408 164.229C144.753 163.934 145.344 163.923 145.713 164.203C146.085 164.487 146.095 164.958 145.745 165.249C145.68 165.309 138.909 171.037 136.225 174.99C134.711 177.214 133.83 181.54 133.345 184.855C135.354 182.534 138.21 180.434 140.153 180.278C141.001 180.21 141.645 180.349 142.111 180.696C142.982 181.35 142.935 182.482 142.861 184.365C142.814 185.516 142.758 186.947 142.87 188.722C142.898 189.129 142.507 189.477 141.989 189.499C141.486 189.518 141.048 189.204 141.02 188.797C140.904 186.962 140.964 185.497 141.011 184.32C141.057 183.218 141.104 181.97 140.843 181.776C140.843 181.776 140.741 181.724 140.335 181.753C138.238 181.922 133.038 186.798 132.847 189.275C132.847 189.29 132.847 189.298 132.847 189.301C132.823 189.697 132.413 190 131.924 190Z" fill="#2E2020"/>
<path d="M200.352 227C200.15 227 199.947 226.996 199.737 226.979C199.304 226.954 198.974 226.558 199.002 226.103C199.029 225.645 199.403 225.303 199.836 225.328C204.111 225.607 207.516 222.35 208.779 220.936C210.698 218.788 219.033 210.535 224.746 209.313C226.911 208.854 228.314 207.903 229.442 207.136C230.848 206.181 232.303 205.188 233.912 207.048C234.742 208.004 235.099 209.075 234.976 210.231C234.782 212.095 233.32 214.055 230.626 216.04C230.173 216.382 229.692 216.728 229.184 217.091C226.375 219.114 222.525 221.879 222.783 223.789C222.847 224.239 222.545 224.656 222.112 224.723C221.683 224.785 221.286 224.469 221.222 224.018C220.833 221.095 224.798 218.246 228.29 215.727C228.794 215.364 229.271 215.022 229.72 214.689C231.957 213.033 233.268 211.386 233.407 210.047C233.479 209.38 233.264 208.758 232.744 208.158C232.092 207.411 231.889 207.445 230.296 208.525C229.124 209.321 227.519 210.414 225.056 210.935C220.185 211.978 212.263 219.46 209.931 222.066C208.572 223.584 204.997 227 200.352 227Z" fill="#2E2020"/>
<path d="M198.763 252C198.405 252 198.081 251.74 198.012 251.369C197.939 250.95 198.216 250.551 198.628 250.474C203.991 249.494 212.367 249.098 219.761 248.75C223.902 248.556 227.817 248.374 230.39 248.11C232.567 247.89 234 247.231 234.659 246.154C235.418 244.907 234.879 243.419 234.875 243.407C234.748 243.078 234.856 242.71 235.137 242.505C235.16 242.489 237.572 240.703 237.942 238.487C238.238 236.686 236.774 234.621 236.181 233.974C236.031 233.812 235.958 233.587 235.981 233.362C236.015 233.137 236.139 232.936 236.324 232.812C236.416 232.75 238.635 231.22 238.462 228.051C238.323 225.49 235.969 223.6 235.942 223.58C235.669 223.359 235.572 222.984 235.715 222.662C236.092 221.81 236.959 219.28 236.462 217.851C235.888 216.212 234.216 215.092 231.492 214.523C231.08 214.434 230.81 214.031 230.899 213.612C230.984 213.198 231.388 212.931 231.8 213.016C235.091 213.705 237.14 215.158 237.903 217.339C238.539 219.16 237.749 221.659 237.329 222.759C238.154 223.545 239.849 225.451 239.988 227.966C240.149 230.879 238.701 232.719 237.815 233.564C238.55 234.563 239.803 236.624 239.452 238.743C239.082 240.951 237.294 242.699 236.462 243.411C236.636 244.178 236.782 245.616 235.961 246.96C235.048 248.463 233.222 249.366 230.544 249.641C227.925 249.904 223.995 250.09 219.83 250.288C212.487 250.629 204.165 251.024 198.902 251.988C198.859 251.996 198.809 252 198.763 252Z" fill="#2E2020"/>
<path d="M224.902 221C224.872 221 224.847 220.994 224.821 220.994C224.344 220.976 223.979 220.409 224.001 219.751C224.018 219.074 224.422 218.557 224.881 218.587C224.894 218.587 224.911 218.587 224.92 218.587C225.95 218.587 228.921 216.594 230.733 215.156C231.14 214.827 231.66 215.034 231.892 215.619C232.119 216.204 231.978 216.942 231.565 217.265C230.771 217.898 226.766 221 224.902 221Z" fill="#2E2020"/>
<path d="M221.932 194C221.621 194 221.318 193.955 221.011 193.873C219.832 193.543 218.951 192.776 218.467 191.641C217.078 188.388 219.056 182.779 220.906 179.836C221.128 179.484 221.617 179.361 222.005 179.57C222.384 179.776 222.513 180.229 222.291 180.585C220.587 183.292 218.83 188.451 219.957 191.091C220.264 191.81 220.757 192.252 221.463 192.45C221.605 192.487 221.746 192.506 221.887 192.506C223.422 192.506 224.993 190.327 226.084 188.403C227.651 185.636 228.931 182.161 229.694 180.083C229.892 179.537 230.07 179.065 230.199 178.732C230.607 177.709 230.389 176.552 229.601 175.557C228.499 174.164 226.5 173.392 224.258 173.494C223.814 173.512 223.442 173.198 223.418 172.786C223.394 172.378 223.737 172.03 224.181 172.011C226.964 171.884 229.472 172.883 230.89 174.677C231.988 176.062 232.295 177.766 231.705 179.241C231.58 179.563 231.406 180.027 231.209 180.559C230.433 182.678 229.133 186.223 227.501 189.095C225.639 192.383 223.806 194 221.932 194Z" fill="#2E2020"/>
<path d="M223.91 200C223.155 200 222.586 199.77 222.193 199.529C220.345 198.391 220.031 195.667 220.003 195.358C219.964 194.951 220.282 194.586 220.715 194.548C221.148 194.51 221.533 194.816 221.573 195.226C221.637 195.859 222.026 197.645 223.051 198.278C223.508 198.553 224.065 198.583 224.752 198.357C228.416 197.178 231.818 191.73 233.65 188.802C234.95 186.719 234.413 184.149 233.559 182.578C232.895 181.357 231.977 180.559 231.155 180.491C230.721 180.453 230.403 180.095 230.435 179.685C230.471 179.274 230.856 178.969 231.29 179.003C232.665 179.116 234.04 180.197 234.962 181.892C235.999 183.803 236.635 186.956 235.009 189.56C232.335 193.844 229.152 198.519 225.261 199.774C224.76 199.936 224.315 200 223.91 200Z" fill="#2E2020"/>
<path d="M226.536 204C225.764 204 225.173 203.77 224.741 203.495C223.411 202.637 222.916 200.88 223.012 199.517C223.045 199.096 223.396 198.786 223.802 198.817C224.201 198.847 224.504 199.211 224.475 199.628C224.416 200.505 224.711 201.684 225.516 202.201C226.333 202.729 227.571 202.515 229.093 201.584C233.334 199.004 236.888 194.429 237.428 191.933C237.672 190.808 237.483 189.713 236.903 188.848C236.401 188.109 235.665 187.619 234.875 187.512C234.476 187.458 234.191 187.075 234.247 186.662C234.298 186.245 234.672 185.95 235.071 186.007C236.264 186.172 237.369 186.888 238.104 187.979C238.924 189.196 239.194 190.716 238.861 192.266C238.152 195.528 234.106 200.298 229.839 202.894C228.491 203.717 227.401 204 226.536 204Z" fill="#2E2020"/>
<mask id="mask0_353_8573" style="mask-type:luminance" maskUnits="userSpaceOnUse" x="225" y="191" width="18" height="17">
<path d="M225.469 191.029H242.349V207.385H225.469V191.029Z" fill="white"/>
</mask>
<g mask="url(#mask0_353_8573)">
<path d="M228.935 206.894C228.321 206.894 227.773 206.755 227.314 206.485C226.692 206.115 225.932 205.323 225.851 203.64C225.828 203.22 226.16 202.861 226.576 202.837C227.001 202.818 227.364 203.146 227.379 203.567C227.418 204.37 227.661 204.91 228.093 205.165C228.711 205.532 229.78 205.389 231.035 204.783C233.413 203.625 237.964 199.641 239.751 197.622C240.65 196.611 240.994 195.53 240.732 194.577C240.492 193.72 239.759 193.029 238.767 192.72C238.365 192.6 238.138 192.168 238.261 191.767C238.385 191.361 238.817 191.134 239.222 191.261C240.708 191.72 241.824 192.809 242.206 194.168C242.619 195.634 242.156 197.225 240.901 198.638C239.284 200.456 234.578 204.76 231.703 206.161C230.699 206.647 229.757 206.894 228.935 206.894Z" fill="#2E2020"/>
</g>
<path d="M227.132 209C226.774 209 226.443 208.808 226.312 208.502L224.05 203C223.889 202.608 224.129 202.182 224.579 202.042C225.028 201.907 225.522 202.107 225.683 202.499L227.953 208.001C228.106 208.389 227.874 208.819 227.425 208.955C227.329 208.985 227.228 209 227.132 209Z" fill="#2E2020"/>
<path d="M219.222 187C218.915 187 218.624 186.813 218.498 186.511C209.671 164.806 195.643 159.626 187.263 156.531C185.298 155.804 183.6 155.176 182.394 154.473C182.016 154.254 181.891 153.773 182.103 153.396C182.319 153.018 182.795 152.887 183.168 153.106C184.265 153.742 185.904 154.349 187.802 155.049C192.011 156.602 197.777 158.732 203.626 163.273C210.516 168.621 216.006 176.237 219.941 185.911C220.106 186.317 219.913 186.774 219.516 186.94C219.418 186.98 219.32 187 219.222 187Z" fill="#2E2020"/>
<path d="M128.755 210C128.706 210 128.661 209.992 128.619 209.985C128.212 209.913 127.94 209.525 128.011 209.114C128.404 206.935 129.616 204.044 131.021 200.697C133.268 195.344 135.816 189.279 135.473 184.809C135.439 184.394 135.748 184.036 136.164 184.002C136.575 183.972 136.938 184.281 136.964 184.692C137.338 189.521 134.717 195.767 132.407 201.277C131.093 204.41 129.854 207.361 129.488 209.382C129.424 209.744 129.106 210 128.755 210Z" fill="#2E2020"/>
<path d="M137.729 213C137.607 213 137.478 212.963 137.36 212.89C137.013 212.666 136.895 212.169 137.102 211.782C138.842 208.502 141.537 193.712 141.537 188.807C141.537 188.363 141.868 188 142.27 188C142.676 188 143 188.363 143 188.807C143 193.533 140.353 208.848 138.363 212.601C138.226 212.857 137.979 213 137.729 213Z" fill="#2E2020"/>
<path d="M149.758 214C149.494 214 149.234 213.859 149.096 213.606C148.894 213.235 149.02 212.762 149.387 212.552C155.122 209.257 159.33 205.521 166.4 194.258C167.019 193.27 167.628 192.287 168.232 191.311C174.778 180.774 180.432 171.678 188.175 171.003C188.592 170.968 188.959 171.28 188.997 171.709C189.032 172.135 188.722 172.51 188.305 172.545C181.312 173.154 175.845 181.953 169.517 192.138C168.913 193.114 168.301 194.102 167.677 195.094C160.439 206.633 156.09 210.483 150.129 213.902C150.011 213.969 149.885 214 149.758 214Z" fill="#2E2020"/>
<path d="M59.9649 274.34C61.083 275.222 63.2009 276.105 65.7768 276.753C68.9594 277.547 71.0544 277.558 71.5467 277.381C74.5233 272 74.6263 264.68 74.4202 260.775C74.1226 255.135 72.951 250.88 72.2069 249.881C70.482 249.195 64.1282 249.561 59.1749 250.352C60.4991 252.41 61.2814 255.794 61.5867 257.356C62.3499 261.207 62.5751 265.397 62.1935 268.569C61.8615 271.337 61.1173 273.268 59.9649 274.34ZM70.608 279C67.3299 279 60.1709 277.281 58.1942 274.714C58.0568 274.532 58.0034 274.301 58.053 274.081C58.1026 273.858 58.2476 273.669 58.4461 273.565C59.5642 272.994 60.3579 271.152 60.6899 268.384C61.4989 261.642 59.3772 252.233 57.2631 250.398C57.0417 250.205 56.9502 249.901 57.0265 249.619C57.1066 249.33 57.3356 249.118 57.6218 249.068C62.5102 248.162 70.8064 247.461 73.0045 248.567C73.0846 248.609 73.1533 248.663 73.2144 248.721C74.4737 250.039 75.6414 255.189 75.9314 260.694C76.1489 264.795 76.0306 272.539 72.787 278.271C72.7755 278.295 72.7602 278.318 72.7412 278.345C72.4282 278.784 71.81 278.985 70.7415 279C70.6996 279 70.6538 279 70.608 279Z" fill="#2E2020"/>
<path d="M72.7749 249C72.4065 249 72.0851 248.787 72.0146 248.48C71.9323 248.13 72.2066 247.794 72.626 247.73C73.3589 247.613 74.3073 247.377 75.3067 247.128C78.2147 246.411 81.8282 245.512 84.4893 246.317C84.893 246.44 85.1007 246.808 84.9518 247.141C84.8029 247.474 84.3561 247.642 83.9524 247.523C81.7812 246.866 78.442 247.691 75.7574 248.357C74.7188 248.615 73.7312 248.858 72.9238 248.987C72.8729 248.997 72.8259 249 72.7749 249Z" fill="#2E2020"/>
<path d="M100.365 280C88.3641 280 76.6869 279.346 73.5853 278.606C73.1725 278.512 72.9218 278.107 73.0221 277.708C73.1224 277.31 73.5351 277.066 73.9479 277.16C78.2685 278.189 99.7326 279.038 114.959 278.125C125.101 277.513 139.035 274.722 151.329 270.837C165.703 266.296 176.477 260.755 181.67 255.244C181.951 254.939 182.437 254.917 182.75 255.195C183.062 255.473 183.085 255.942 182.8 256.247C177.43 261.949 166.42 267.637 151.8 272.258C139.397 276.176 125.313 278.993 115.051 279.613C110.511 279.887 105.407 280 100.365 280Z" fill="#2E2020"/>
<path d="M142.46 159C142.195 159 141.942 158.992 141.689 158.965C141.677 158.965 141.666 158.965 141.658 158.962C137.797 158.455 133.822 155.565 129.846 150.379C126.469 146.13 123.272 141.797 121.338 135.583C120.589 133.357 120.271 129.933 119.991 126.905C119.81 124.974 119.641 123.143 119.388 121.888C119.384 121.877 119.38 121.865 119.38 121.85C119.2 120.687 119.066 119.489 118.92 118.223C118.69 116.2 118.452 114.108 118.014 111.909C117.934 111.498 118.202 111.095 118.613 111.014C119.027 110.934 119.427 111.199 119.507 111.613C119.96 113.874 120.202 115.996 120.436 118.046C120.578 119.293 120.712 120.472 120.885 121.604C121.153 122.94 121.326 124.798 121.51 126.767C121.783 129.71 122.09 133.05 122.784 135.107C122.788 135.115 122.788 135.122 122.788 135.126C124.646 141.091 127.75 145.298 131.043 149.443C134.72 154.229 138.45 156.996 141.846 157.453C143.922 157.641 146.566 156.87 149.928 155.097C149.936 155.093 149.94 155.085 149.947 155.085C155.013 152.598 161.195 148.215 163.575 144.035C163.786 143.666 164.25 143.54 164.615 143.747C164.979 143.954 165.11 144.419 164.899 144.787C162.358 149.243 155.899 153.857 150.627 156.448C147.376 158.159 144.694 159 142.46 159Z" fill="#2E2020"/>
<path d="M135.185 133C134.955 133 134.729 132.912 134.564 132.746C134.321 132.493 133.955 132.195 133.564 131.879C132.264 130.824 130.651 129.515 131.067 127.912C131.071 127.894 131.079 127.872 131.083 127.853C131.235 127.431 131.532 126.96 131.844 126.46C132.289 125.754 132.836 124.876 132.819 124.291C132.758 122.993 132.643 122.383 131.663 121.152C131.404 120.824 131.495 120.369 131.861 120.133C132.227 119.902 132.737 119.979 133.001 120.31C134.218 121.843 134.379 122.725 134.449 124.243C134.486 125.24 133.836 126.265 133.272 127.173C133.009 127.589 132.758 127.986 132.651 128.269C132.486 129.037 133.692 130.011 134.663 130.798C135.091 131.147 135.494 131.474 135.807 131.794C136.095 132.099 136.058 132.559 135.716 132.82C135.564 132.941 135.375 133 135.185 133Z" fill="#2E2020"/>
<path d="M141.673 120C141.612 120 141.554 119.992 141.5 119.971C141.142 119.855 140.926 119.406 141.024 118.965C141.308 117.656 142.319 116.625 143.725 116.197C145.348 115.71 146.958 116.143 147.823 117.302C148.073 117.639 148.056 118.159 147.783 118.466C147.509 118.774 147.083 118.753 146.832 118.416C146.308 117.714 145.162 117.465 144.046 117.801C143.133 118.071 142.471 118.682 142.322 119.389C142.241 119.755 141.967 120 141.673 120Z" fill="#2E2020"/>
<path d="M137.718 111C137.495 111 137.274 110.88 137.134 110.652C136.903 110.284 136.979 109.77 137.303 109.505C139.411 107.799 142.406 107.547 146.458 108.731C146.841 108.843 147.075 109.294 146.978 109.729C146.877 110.172 146.487 110.433 146.105 110.321C142.482 109.265 139.873 109.435 138.133 110.847C138.007 110.95 137.859 111 137.718 111Z" fill="#2E2020"/>
<path d="M118.83 118C118.709 118 118.583 117.975 118.466 117.915C118.056 117.716 117.885 117.211 118.081 116.792C119.867 113.056 125.516 112.95 127.201 113.009C127.66 113.026 128.02 113.417 127.999 113.879C127.991 114.341 127.602 114.705 127.146 114.693C124.19 114.591 120.649 115.282 119.578 117.525C119.432 117.826 119.135 118 118.83 118Z" fill="#2E2020"/>
<path d="M132.809 141.034C133.515 142.617 135.618 146.159 140.134 145.386C144.446 144.519 145.858 140.477 146.278 138.621C144.838 138.799 142.009 139.174 138.635 139.784C135.904 140.292 133.864 140.769 132.809 141.034ZM138.882 147C136.595 147 134.586 146.053 133.017 144.216C131.608 142.58 131.055 140.807 131.032 140.731C130.973 140.542 130.996 140.333 131.098 140.159C131.196 139.981 131.365 139.852 131.565 139.795C131.671 139.769 134.182 139.083 138.345 138.311C143.308 137.413 147.098 137.008 147.137 137.004C147.372 136.981 147.6 137.061 147.769 137.216C147.933 137.375 148.02 137.599 147.996 137.822C147.988 137.902 147.804 139.758 146.8 141.792C145.446 144.545 143.245 146.299 140.44 146.86C140.432 146.86 140.424 146.86 140.42 146.864C139.895 146.955 139.384 147 138.882 147Z" fill="#2E2020"/>
<path d="M133.24 194C133.084 194 132.924 193.946 132.787 193.842C128.825 190.813 126.001 186.509 124.828 181.735C123.625 176.834 124.291 171.859 126.697 167.724C128.802 164.118 128.95 159.837 127.165 154.631C125.361 149.394 121.825 143.957 118.943 139.811C112.979 131.215 113.885 120.965 114.326 116.036C114.41 115.062 114.479 114.291 114.479 113.771C114.479 113.343 114.817 113 115.236 113C115.651 113 115.99 113.343 115.99 113.771C115.99 114.36 115.917 115.158 115.83 116.171C115.377 121.281 114.536 130.794 120.181 138.933C123.119 143.16 126.724 148.712 128.589 154.13C130.53 159.783 130.34 164.484 128.003 168.499C123.534 176.163 126.039 186.76 133.697 192.624C134.032 192.883 134.101 193.36 133.846 193.696C133.697 193.892 133.473 194 133.24 194Z" fill="#2E2020"/>
<path d="M218.13 184C217.95 184 217.774 183.938 217.629 183.814C217.312 183.535 217.282 183.051 217.557 182.73C222.191 177.329 224.121 171.228 223.295 164.592C221.492 150.109 207.13 136.571 199.783 131.437C194.098 127.465 192.745 120.628 191.175 112.719C189.796 105.789 188.237 97.9334 183.541 89.8963C179.021 82.1572 173.806 76.3887 168.453 73.2025C164.216 70.6861 160.052 69.9002 157.026 71.05C156.636 71.1971 156.197 70.9958 156.052 70.6009C155.899 70.2021 156.097 69.7569 156.491 69.6098C159.952 68.2974 164.587 69.1259 169.218 71.8785C174.796 75.1963 180.194 81.1545 184.848 89.1142C189.673 97.3721 191.259 105.367 192.657 112.417C194.224 120.314 195.466 126.551 200.65 130.175C208.185 135.444 222.929 149.377 224.801 164.403C225.683 171.487 223.632 177.991 218.703 183.741C218.55 183.911 218.336 184 218.13 184Z" fill="#2E2020"/>
<path d="M122.637 125C122.577 125 122.516 124.992 122.455 124.971C122.12 124.844 121.929 124.387 122.025 123.956C122.337 122.599 123.368 121.514 124.724 121.14C126.007 120.774 127.207 121.14 127.845 122.093C128.075 122.43 128.046 122.948 127.781 123.24C127.516 123.536 127.114 123.499 126.888 123.158C126.562 122.673 125.799 122.5 124.992 122.731C124.108 122.981 123.419 123.639 123.244 124.416C123.164 124.77 122.912 125 122.637 125Z" fill="#2E2020"/>
<path d="M92.4845 139C89.4484 139 86.15 137.348 82.6655 134.074C77.4027 129.124 71.6078 120.227 66.7667 109.663C62.5602 100.491 59.8471 91.6795 60.0067 87.7361C60.0295 87.3104 60.3753 86.9815 60.7933 87.0008C61.2113 87.0163 61.5342 87.3762 61.5152 87.798C61.215 95.1546 72.1702 122.116 83.6877 132.944C87.2216 136.26 90.4591 137.766 93.3091 137.413C99.0317 136.705 102.984 132.541 105.066 125.03C106.651 119.31 106.487 113.741 106.483 113.687C106.472 113.262 106.799 112.906 107.213 112.894C107.635 112.879 107.977 113.211 107.992 113.633C108 113.869 108.167 119.5 106.518 125.448C104.291 133.497 99.7841 138.16 93.4915 138.938C93.1609 138.981 92.8227 139 92.4845 139Z" fill="#2E2020"/>
<path d="M112.006 115C111.521 115 111.009 114.958 110.467 114.878C103.824 113.793 100.974 111.047 97.3835 106.971C93.4223 102.331 85.9506 92.06 86.0002 86.3498C86.0079 85.9334 86.344 85.5935 86.7642 85.6012C87.1844 85.605 87.5206 85.9487 87.5167 86.3651C87.4747 91.212 94.2513 100.967 98.5296 105.982C101.998 109.909 104.55 112.376 110.7 113.381C113.912 113.858 115.711 112.578 119.294 110.023C119.768 109.683 120.272 109.328 120.811 108.95C124.948 106.116 130.789 101.54 135.143 95.8413C137.118 93.2402 138.149 90.6658 139.246 87.9387C139.639 86.9647 140.04 85.9602 140.503 84.9136C141.652 82.2896 143.15 79.7878 144.59 77.3701C144.808 77.0111 145.274 76.8926 145.633 77.1065C145.992 77.3204 146.106 77.7864 145.892 78.1454C144.471 80.525 143.005 82.9848 141.889 85.5209C141.438 86.5446 141.041 87.5415 140.652 88.504C139.517 91.3266 138.451 93.9965 136.35 96.758C131.87 102.617 125.899 107.3 121.674 110.199C121.147 110.566 120.647 110.921 120.177 111.257C116.922 113.575 114.925 115 112.006 115Z" fill="#2E2020"/>
<path d="M136.452 87C135.89 87 135.283 86.9242 134.68 86.7649C132.998 86.3212 131.718 85.3769 131.078 84.0951C130.897 83.7235 131.041 83.2722 131.4 83.0826C131.762 82.893 132.203 83.0409 132.387 83.4125C132.824 84.2885 133.793 84.9787 135.043 85.3049C136.289 85.6348 137.421 85.4907 137.853 85.1911C138.19 84.9522 138.645 85.0432 138.874 85.3883C139.1 85.7296 139.015 86.196 138.678 86.435C138.146 86.8066 137.347 87 136.452 87Z" fill="#2E2020"/>
<path d="M118.009 82C114.684 82 112.441 80.1768 110.572 78.6594L110.302 78.4433C109.955 78.1618 109.899 77.6561 110.177 77.3053C110.451 76.9545 110.956 76.8974 111.299 77.1788L111.573 77.3991C113.691 79.1163 116.092 81.0619 120.014 80.1319C120.446 80.0299 120.878 80.2991 120.979 80.7356C121.08 81.172 120.813 81.6044 120.386 81.7063C119.534 81.9062 118.743 82 118.009 82Z" fill="#2E2020"/>
<path d="M143.21 78C142.967 78 142.727 77.9119 142.572 77.7484C141.096 76.182 135.75 76.031 134.03 76.4588C133.611 76.5626 133.165 76.3802 133.037 76.0499C132.905 75.7196 133.137 75.3705 133.556 75.2667C135.698 74.7383 141.806 74.8421 143.844 77.0029C144.104 77.2829 144.032 77.6697 143.681 77.8773C143.537 77.9623 143.374 78 143.21 78Z" fill="#2E2020"/>
<path d="M123.2 74C122.909 74 122.626 73.8127 122.485 73.4896C121.427 71.0408 115.462 68.002 110.967 69.0883C110.531 69.196 110.107 68.8729 110.018 68.3719C109.925 67.8709 110.204 67.3793 110.636 67.2716C115.753 66.0308 122.457 69.2522 123.915 72.6562C124.113 73.1197 123.955 73.6722 123.559 73.9064C123.442 73.9719 123.321 74 123.2 74Z" fill="#2E2020"/>
<path d="M124.82 94C124.61 94 124.408 93.932 124.247 93.7884C123.922 93.4974 123.918 93.0251 124.235 92.7303C124.721 92.2655 125.31 91.9066 125.882 91.5627C126.706 91.0563 127.489 90.5802 127.818 89.8925C128.094 89.3143 127.748 88.362 127.419 87.44C127.135 86.6427 126.838 85.8189 126.875 85.0594C126.875 82.9811 128.502 81.3373 129.577 80.249C129.878 79.9391 130.393 79.9165 130.731 80.1923C131.064 80.4719 131.093 80.9443 130.788 81.2541C129.586 82.4709 128.506 83.6839 128.515 85.0745C128.515 85.0896 128.515 85.1047 128.51 85.1198C128.482 85.5998 128.733 86.2988 128.976 86.9715C129.38 88.1051 129.845 89.3937 129.314 90.4933C128.795 91.5854 127.728 92.2353 126.789 92.8097C126.266 93.1271 125.771 93.4294 125.405 93.7733C125.244 93.9244 125.034 94 124.82 94Z" fill="#2E2020"/>
<path d="M119.797 103C115.548 103 110.558 100.286 108.219 98.1679C107.916 97.8895 107.928 97.4512 108.252 97.1903C108.575 96.9259 109.081 96.9398 109.389 97.2146C111.865 99.462 117.288 102.207 121.027 101.515C121.46 101.435 121.889 101.675 121.982 102.043C122.075 102.416 121.8 102.784 121.363 102.864C120.861 102.958 120.331 103 119.797 103Z" fill="#2E2020"/>
<path d="M84.6123 71C84.504 71 84.3995 70.9741 84.2987 70.9297C80.9126 69.3567 77.8887 64.8191 76.597 59.3748C75.4322 54.4745 75.9885 50.1368 78.1202 47.4683C78.1239 47.4646 78.1276 47.4609 78.1314 47.4535C79.9009 45.3438 82.1521 44.5407 84.3174 45.255C86.912 46.11 88.8346 48.9783 88.9989 52.2316C89.0213 52.6387 88.704 52.9829 88.297 53.0015C87.8864 53.02 87.5392 52.7091 87.5205 52.3056C87.3824 49.6445 85.8779 47.3165 83.8507 46.6503C82.2753 46.1322 80.6513 46.7466 79.2775 48.3862C77.4594 50.666 76.9965 54.6485 78.038 59.0417C79.214 63.9864 81.9841 68.2279 84.9259 69.601C85.2992 69.7712 85.456 70.208 85.2843 70.5744C85.1574 70.8446 84.8923 71 84.6123 71Z" fill="#2E2020"/>
<path d="M85.268 63C84.8803 63 84.5553 62.7139 84.5368 62.344C84.4224 60.2052 82.9895 56.695 81.2428 55.2051C80.94 54.9469 80.9178 54.5073 81.1911 54.2282C81.4643 53.9455 81.926 53.9211 82.2251 54.1793C84.511 56.1298 85.8847 60.1354 85.9992 62.2742C86.0177 62.6546 85.7075 62.9826 85.305 63C85.2902 63 85.2791 63 85.268 63Z" fill="#2E2020"/>
<path d="M139.864 76C139.459 76 139.102 75.7439 139.015 75.3753C138.928 74.9601 139.237 74.5526 139.703 74.475C143.441 73.8309 146.273 71.7161 148.116 68.185C151.645 61.4216 150.529 51.3288 147.279 46.1447C147.044 45.7722 147.192 45.3027 147.61 45.097C148.024 44.8914 148.551 45.0233 148.787 45.3919C152.25 50.9098 153.444 61.6428 149.684 68.833C147.623 72.7793 144.286 75.255 140.034 75.9884C139.973 75.9961 139.921 76 139.864 76Z" fill="#2E2020"/>
<path d="M143.797 77C143.793 77 143.785 77 143.777 77C143.352 76.9962 143 76.6636 143 76.2478C143.008 75.8357 143.352 75.4993 143.777 75.4993C143.785 75.4993 143.793 75.4993 143.797 75.4993C147.945 75.4993 151.937 73.6509 154.762 70.419C157.719 67.0358 158.988 62.6774 158.242 58.4589C158.172 58.0923 158.113 57.7143 158.051 57.3098C157.699 55.0796 157.305 52.5507 155.512 51.3714C155.156 51.137 155.062 50.6683 155.309 50.3281C155.551 49.9841 156.031 49.8971 156.387 50.1315C158.738 51.6851 159.207 54.6789 159.582 57.0868C159.644 57.4799 159.703 57.8503 159.769 58.2057C160.59 62.8627 159.199 67.6671 155.945 71.3866C152.832 74.955 148.402 77 143.797 77Z" fill="#2E2020"/>
<path d="M132.099 71C131.691 71 131.327 70.7511 131.248 70.3928C129.874 64.3619 134.456 59.7756 138.883 55.3401C142.372 51.8551 145.654 48.5587 146.264 44.6512C146.33 44.2401 146.768 43.9535 147.247 44.0063C147.721 44.0628 148.054 44.4362 147.993 44.8473C147.317 49.1998 143.706 52.8131 140.208 56.3132C135.855 60.6694 131.748 64.7843 132.955 70.1061C133.047 70.5135 132.74 70.9057 132.27 70.9849C132.213 70.9925 132.156 71 132.099 71Z" fill="#2E2020"/>
<path d="M131.555 69C131.287 69 131.062 68.6838 131.036 68.2553C130.829 64.9434 131.513 61.6066 133.063 58.3281C133.238 57.9661 133.563 57.8912 133.794 58.1658C134.021 58.4404 134.068 58.9563 133.896 59.3183C132.505 62.2557 131.892 65.2055 132.07 68.093C132.099 68.5465 131.892 68.9542 131.607 68.9958C131.589 69 131.57 69 131.555 69Z" fill="#2E2020"/>
<path d="M121.423 62C119.814 62 118.101 61.8109 116.272 61.4291C114.957 61.1882 113.731 60.7025 112.543 60.2354C110.937 59.6015 109.421 59.0047 107.723 58.9639C107.317 58.9565 106.993 58.6192 107 58.2114C107.011 57.8073 107.35 57.4811 107.756 57.4959C109.719 57.5404 111.433 58.2151 113.087 58.8675C114.264 59.3346 115.374 59.772 116.551 59.9834C116.555 59.9871 116.562 59.9871 116.566 59.9871C123.658 61.4625 128.635 60.0093 132.699 55.2605C132.963 54.9491 133.429 54.9121 133.738 55.1753C134.051 55.4422 134.088 55.9056 133.824 56.2133C130.49 60.1094 126.474 62 121.423 62Z" fill="#2E2020"/>
<path d="M101.635 57C101.372 57 101.125 56.74 101.035 56.3251C100.92 55.8102 101.096 55.2453 101.43 55.0653C102.787 54.3504 104.324 54.3554 105.815 54.3604C106.973 54.3654 108.173 54.3654 109.232 54.0204C109.578 53.9105 109.915 54.2554 109.986 54.7903C110.06 55.3252 109.838 55.8502 109.495 55.9652C108.305 56.3501 107.038 56.3451 105.812 56.3451C104.365 56.3351 102.995 56.3351 101.841 56.945C101.773 56.98 101.706 57 101.635 57Z" fill="#2E2020"/>
<path d="M100.457 52C95.7641 52 90.9241 47.8998 89.2439 46.3252C88.9201 46.0251 88.9201 45.534 89.2357 45.2339C89.5471 44.926 90.0635 44.9221 90.3832 45.2222C92.3503 47.0618 99.1205 52.799 103.686 49.3965C104.038 49.1314 104.547 49.1938 104.825 49.529C105.104 49.8603 105.042 50.3474 104.69 50.6125C103.358 51.6025 101.911 52 100.457 52Z" fill="#2E2020"/>
<path d="M96.2777 45C96.1688 45 96.0599 44.97 95.9582 44.9058C95.3192 44.5331 94.5821 44.002 93.7325 43.3853C90.679 41.1838 86.4963 38.1727 84.2089 40.6484C83.9148 40.961 83.4573 40.9396 83.1886 40.5927C82.9199 40.2458 82.9417 39.7104 83.2322 39.3934C86.322 36.0526 91.0384 39.4534 94.4841 41.9333C95.3083 42.5287 96.0199 43.0426 96.6009 43.3853C96.9567 43.5951 97.1019 44.1048 96.924 44.5246C96.7969 44.8244 96.5428 45 96.2777 45Z" fill="#2E2020"/>
<path d="M145.185 36C144.784 36 144.435 35.7172 144.382 35.3189C143.332 27.8193 140.163 22.7093 136.149 16.2492L136.116 16.1974C135.887 15.823 136.006 15.3371 136.395 15.1141C136.776 14.8871 137.281 15.0105 137.51 15.3809L137.543 15.4327C141.655 22.0561 144.898 27.2816 145.993 35.1078C146.051 35.538 145.743 35.9363 145.296 35.996C145.259 36 145.222 36 145.185 36Z" fill="#2E2020"/>
<path d="M159.352 62C159.196 62 159.04 61.9534 158.899 61.8563C158.556 61.6115 158.473 61.1298 158.723 60.784C165.214 51.7319 162.086 40.7529 158.317 33.1306C154.939 26.2968 149.53 19.3038 143.469 13.9464C137.607 8.75993 131.874 5.69467 127.746 5.53927C127.317 5.52373 126.985 5.16631 127.001 4.73896C127.016 4.31549 127.375 3.98138 127.805 4.00081C137.318 4.35823 152.522 17.9169 159.711 32.4507C162.32 37.7382 163.757 42.8081 163.972 47.5361C164.214 52.8897 162.875 57.6488 159.985 61.6775C159.833 61.8873 159.594 62 159.352 62Z" fill="#2E2020"/>
<path d="M78.9925 45C78.5921 45.0038 78.2532 44.6873 78.2301 44.2821C77.926 38.9135 77.4177 29.9361 80.5442 21.4143C84.1788 11.5107 91.9063 4.54803 103.519 0.730938C107.088 -0.515696 121.407 -0.700954 126.77 4.56733C127.071 4.86451 127.078 5.35082 126.782 5.65186C126.485 5.95291 126 5.95677 125.7 5.66344C120.926 0.97023 107.149 1.0783 104.019 2.17827C104.011 2.17827 104.008 2.18213 104.004 2.18213C77.8644 10.7773 79.1427 33.348 79.7587 44.1933C79.7818 44.614 79.4584 44.9768 79.0387 45C79.0233 45 79.0079 45 78.9925 45Z" fill="#2E2020"/>
<path d="M89.9222 62C89.7495 62 89.5722 61.9577 89.4182 61.8732C88.9888 61.6465 88.8721 61.1738 89.1522 60.8203C91.2149 58.2148 94.2204 57.7498 97.4032 57.258C97.8839 57.1811 98.3879 57.1004 98.8826 57.0159C99.3867 56.9313 99.872 57.1926 99.9794 57.6077C100.087 58.0188 99.7647 58.4223 99.2653 58.5107C98.7473 58.5991 98.2386 58.676 97.7439 58.7528C94.7244 59.2216 92.3396 59.5906 90.7016 61.6503C90.5242 61.877 90.2255 62 89.9222 62Z" fill="#2E2020"/>
<path d="M88.7251 61C88.5898 61 88.4509 60.9595 88.3266 60.8783C87.994 60.6572 87.8989 60.2074 88.1183 59.8683C89.6133 57.5606 90.1653 52.5102 88.6483 50.1252C88.4363 49.786 88.5313 49.3326 88.8713 49.1151C89.2076 48.8976 89.6572 48.9971 89.8729 49.3399C91.7372 52.278 91.1011 57.9403 89.3319 60.6682C89.193 60.882 88.9627 61 88.7251 61Z" fill="#2E2020"/>
<path d="M6.25558 249C5.89976 249 5.58515 248.766 5.52522 248.429C5.33421 247.394 5.29301 246.858 5.24432 246.177C5.20686 245.627 5.15443 244.943 5.00461 243.764C4.95967 243.389 5.24806 243.052 5.66006 243.004C6.06456 242.963 6.43536 243.231 6.48405 243.606C6.63761 244.819 6.6863 245.521 6.7275 246.088C6.77994 246.752 6.81364 247.233 6.98968 248.206C7.0571 248.577 6.78743 248.928 6.37918 248.99C6.33798 248.997 6.29678 249 6.25558 249Z" fill="#2E2020"/>
<path d="M5.46295 234C5.14182 234 4.84002 233.799 4.73556 233.475C4.24418 231.983 4.02364 227.648 3.64833 220.474C3.34267 214.551 2.9635 207.179 2.28253 198.297C-0.54967 161.343 -0.739257 139.753 1.67508 128.302C2.92868 122.348 5.65254 113.701 11.4949 106.338C18.1189 97.9808 27.1842 93.1707 38.4318 92.0464C57.2744 90.1571 69.3693 87.2942 78.5121 63.4911C78.6668 63.097 79.1118 62.8999 79.5064 63.0506C79.9011 63.2052 80.0984 63.6456 79.9514 64.0397C75.4787 75.6728 70.0039 83.1062 62.7183 87.4333C55.7539 91.5712 47.6674 92.6607 38.5865 93.5725C13.6771 96.0683 5.71058 116.599 3.1763 128.615C0.796786 139.919 0.994112 161.373 3.81471 198.181C4.49954 207.083 4.87872 214.462 5.18438 220.393C5.52486 226.957 5.76861 231.701 6.19422 232.995C6.32577 233.397 6.10523 233.83 5.70284 233.961C5.62546 233.988 5.5442 234 5.46295 234Z" fill="#2E2020"/>
<path d="M99.2339 208C98.9636 208 98.705 207.858 98.5621 207.61C98.4965 207.491 91.7906 195.565 83.7837 182.438C81.2396 178.271 77.8847 170.565 74.0009 161.639C65.7045 142.596 54.3427 116.513 44.4132 111.432C44.0387 111.241 43.892 110.782 44.085 110.411C44.2781 110.04 44.7413 109.894 45.1197 110.082C55.5317 115.415 66.5538 140.714 75.4062 161.042C79.2706 169.911 82.6101 177.575 85.0963 181.653C93.1187 194.804 99.8361 206.753 99.9018 206.871C100.11 207.239 99.9751 207.702 99.6083 207.904C99.4887 207.969 99.3613 208 99.2339 208Z" fill="#2E2020"/>
<path d="M186.589 255C184.056 255 181.038 254.955 177.541 254.859C167.566 254.588 154.853 253.957 141.744 253.08C117.282 251.443 88.6172 248.718 81.5091 245.974C68.145 240.816 53.0998 227.531 44.7792 217.368C42.1529 214.164 38.593 208.947 34.8239 203.426C30.8922 197.671 26.8287 191.723 23.296 187.245C18.0201 180.561 16.3621 180.379 15.9825 180.487C15.5719 180.595 15.1458 180.372 15.0296 179.982C14.9134 179.588 15.1497 179.184 15.5564 179.069C19.0737 178.107 25.6666 187.326 36.11 202.62C39.8597 208.116 43.4002 213.303 45.9878 216.459C54.1883 226.473 68.9817 239.55 82.0862 244.611C89.0278 247.288 117.507 249.98 141.849 251.61C154.942 252.483 167.628 253.114 177.583 253.385C192.485 253.79 195.053 253.21 195.487 253.025C197.184 252.293 198.9 249.096 200.077 244.477C201.991 236.988 201.906 228.6 199.899 226.157C197.873 223.699 188.026 222.444 177.606 221.111C169.828 220.12 161.012 218.995 154.113 217.175C145.994 215.037 133.885 212.634 123.255 211.06C111.526 209.319 103.345 208.836 101.373 209.779C98.2432 211.268 97.5498 213.589 96.5853 216.8C96.2057 218.055 95.7757 219.481 95.1482 220.952C94.9893 221.33 94.54 221.508 94.1449 221.356C93.7498 221.2 93.5638 220.77 93.7227 220.395C94.3231 218.995 94.7221 217.673 95.1055 216.392C96.0972 213.091 96.9533 210.236 100.687 208.461C103.655 207.05 114.726 208.301 123.492 209.605C134.171 211.186 146.35 213.603 154.519 215.757C161.318 217.55 169.7 218.616 177.804 219.652C189.471 221.141 198.691 222.318 201.104 225.248C203.715 228.418 203.393 237.69 201.569 244.826C200.806 247.841 199.07 253.092 196.122 254.365C195.142 254.788 191.947 255 186.589 255Z" fill="#2E2020"/>
<path d="M16.2093 305C15.8222 305 15.483 304.728 15.4271 304.352C14.9084 301.037 14.214 296.817 13.4838 292.345C11.9874 283.204 10.439 273.753 10.0041 269.84C9.96016 269.422 10.2754 269.047 10.7104 269.005C11.1414 268.959 11.5324 269.261 11.5803 269.679C12.0113 273.558 13.5556 282.986 15.0481 292.107C15.7823 296.584 16.4727 300.807 16.9914 304.126C17.0553 304.544 16.756 304.931 16.325 304.992C16.2851 304.996 16.2452 305 16.2093 305Z" fill="#2E2020"/>
<path d="M137.873 314C137.27 314 136.77 313.674 136.741 313.259C136.554 309.786 135.889 301.252 135.24 293.002C134.78 287.051 134.291 280.894 134.001 276.804C133.978 276.381 134.456 276.024 135.075 276.001C135.701 275.978 136.23 276.307 136.258 276.734C136.548 280.816 137.026 286.969 137.492 292.921C138.146 301.175 138.811 309.716 138.999 313.201C139.027 313.628 138.538 313.984 137.913 314C137.901 314 137.89 314 137.873 314Z" fill="#2E2020"/>
<path d="M228.614 308C228.598 308 228.583 307.996 228.564 307.996C228.225 307.962 227.974 307.593 228.002 307.174C228.008 307.078 228.642 297.329 229.188 287.688C229.572 280.877 230.721 256.309 230.773 248.753C230.78 248.334 231.055 247.989 231.391 248C231.731 248 232.003 248.346 232 248.769C231.944 256.278 230.844 280.14 230.412 287.795C229.868 297.441 229.232 307.201 229.226 307.297C229.198 307.697 228.932 308 228.614 308Z" fill="#2E2020"/>
<path d="M176.418 58.875C176.58 58.9621 176.873 58.9962 177.105 59C184.068 58.8409 189.644 57.3787 191.962 54.1057C193.86 51.4123 193.073 48.3591 190.278 46.8817C188.572 45.9763 186.556 46.0559 184.868 46.931C184.995 45.2414 184.159 43.6428 182.458 42.7413C179.655 41.2563 176.165 42.0442 174.267 44.73C171.949 48.0068 172.981 52.9731 175.99 58.409C176.09 58.5833 176.257 58.7879 176.418 58.875Z" fill="#DF6062"/>
<path d="M174.48 28.9655C174.594 28.9197 174.724 28.7864 174.813 28.6656C177.399 24.9584 178.677 21.3762 177.638 18.677C176.786 16.461 174.687 15.4821 172.738 16.2694C171.557 16.7526 170.822 17.8397 170.692 19.1227C169.747 18.2854 168.484 17.9938 167.303 18.4729C165.35 19.2601 164.473 21.4386 165.326 23.6546C166.365 26.358 169.686 28.0783 174.037 28.978C174.18 29.0072 174.362 29.0114 174.48 28.9655Z" fill="#DF6062"/>
<path d="M195.054 19.9042C195.148 19.9721 195.321 19.996 195.462 20C199.642 19.8803 202.99 18.7591 204.375 16.2533C205.517 14.1984 205.043 11.8642 203.369 10.731C202.343 10.0408 201.131 10.1006 200.119 10.7709C200.202 9.47816 199.696 8.25321 198.677 7.56691C196.995 6.42974 194.898 7.03623 193.76 9.09112C192.371 11.5969 192.986 15.3915 194.794 19.5491C194.855 19.6768 194.953 19.8364 195.054 19.9042Z" fill="#DF6062"/>
<path d="M26.0747 245C22.4576 245 18.7028 243.028 17.7874 242.519C17.6794 242.458 17.5455 242.383 17.3817 242.293C14.8773 240.905 7.26352 236.692 5.11261 233.182C4.88561 232.809 5.01213 232.329 5.39915 232.11C5.78617 231.888 6.2811 232.013 6.51182 232.386C7.79194 234.48 11.7216 237.356 18.193 240.938C18.3567 241.024 18.4981 241.106 18.606 241.164C19.2722 241.536 25.2225 244.76 28.7875 242.827C29.1782 242.616 29.6732 242.752 29.8965 243.128C30.116 243.505 29.9746 243.982 29.5839 244.193C28.5084 244.774 27.299 245 26.0747 245Z" fill="#2E2020"/>
<path d="M10.8461 252C10.7663 252 10.6824 252 10.5986 251.996C7.79161 251.886 5.81115 251.25 5.27611 248.493C5.18827 248.039 5.50371 247.611 5.97885 247.531C6.45001 247.448 6.9052 247.743 6.98905 248.194C7.26855 249.622 7.83952 250.235 10.6704 250.345C11.6247 250.383 12.1518 250.118 12.2396 249.853C12.3634 249.474 11.8923 248.516 10.0795 247.425C7.50412 245.872 2.92433 242.093 2.12177 237.764C1.75043 235.775 2.22957 233.942 3.54322 232.321C3.83869 231.962 4.38571 231.893 4.76503 232.17C5.14834 232.45 5.22021 232.969 4.92474 233.329C3.90657 234.586 3.5512 235.942 3.83869 237.48C4.53744 241.248 8.84173 244.721 11.0138 246.031C14.264 247.982 14.1163 249.697 13.9047 250.345C13.5573 251.39 12.4233 252 10.8461 252Z" fill="#2E2020"/>
<path d="M15.2443 261C15.0605 261 14.8767 260.928 14.731 260.781C13.8328 259.884 12.3555 259.353 10.7846 258.791C9.0056 258.15 7.16071 257.49 5.68341 256.182C3.3114 254.075 3.44665 250.781 6.08568 246.374C6.31109 245.997 6.78272 245.884 7.13297 246.133C7.48322 246.385 7.58379 246.89 7.35144 247.271C5.1771 250.905 4.94129 253.404 6.64053 254.908C7.90283 256.024 9.60901 256.639 11.2597 257.227C12.9867 257.849 14.62 258.437 15.7575 259.568C16.0627 259.877 16.0835 260.401 15.7991 260.732C15.6535 260.91 15.4489 261 15.2443 261Z" fill="#2E2020"/>
<path d="M15.1651 268C15.0734 268 14.9817 267.982 14.89 267.946C4.88697 263.767 4.66536 261.161 5.13533 256.544C5.15443 256.331 5.17736 256.105 5.20028 255.879C5.24995 255.336 5.66643 254.947 6.12111 255.006C6.57961 255.065 6.90821 255.553 6.85854 256.091C6.83943 256.331 6.81269 256.557 6.79358 256.779C6.60254 258.638 6.47645 259.859 7.36671 261.121C8.45184 262.659 11.0156 264.237 15.444 266.082C15.8796 266.263 16.105 266.829 15.9522 267.344C15.8338 267.751 15.509 268 15.1651 268Z" fill="#2E2020"/>
<path d="M60.1611 274C60.0574 274 59.9499 273.976 59.8425 273.933C56.4033 272.479 46.2241 271.489 38.7393 272.439C31.0434 273.414 20.5341 273.192 15.7937 271.952C12.8728 271.187 10.777 269.805 9.72533 267.951C8.98837 266.648 8.80797 265.154 9.20715 263.637C9.32614 263.178 9.78674 262.904 10.2358 263.031C10.6811 263.158 10.9459 263.629 10.8231 264.093C10.5391 265.162 10.658 266.168 11.1724 267.08C11.9899 268.525 13.7325 269.631 16.2083 270.28C20.703 271.453 31.1356 271.659 38.532 270.72C45.702 269.809 56.3688 270.593 60.4796 272.336C60.9095 272.514 61.113 273.022 60.9364 273.461C60.8059 273.794 60.4912 274 60.1611 274Z" fill="#2E2020"/>
<path d="M56.5443 252C53.7396 252 50.4826 251.471 47.4143 248.678C46.3011 247.67 45.0384 246.294 43.7048 244.844C40.5186 241.376 36.5534 237.062 33.198 236.341C31.4475 235.962 28.7766 235.016 25.9443 234.011C23.1554 233.028 20.2759 232.007 17.8882 231.381C14.5761 230.514 13.8326 230.869 13.7185 230.948C13.7146 230.977 13.7185 231.04 13.7421 231.144C14.521 234.595 16.3187 235.349 19.0368 236.487C19.5679 236.708 20.1107 236.937 20.685 237.2C23.7966 238.625 25.964 241.197 26.6327 244.252C26.7389 244.74 26.4479 245.231 25.9876 245.344C25.5234 245.456 25.0632 245.152 24.957 244.665C24.4142 242.172 22.6086 240.063 20.0006 238.867C19.4538 238.617 18.9188 238.392 18.4074 238.179C15.5359 236.975 13.0577 235.941 12.0703 231.569C11.8304 230.502 12.2591 229.889 12.5384 229.618C14.1355 228.072 18.8756 229.598 26.4911 232.29C29.2683 233.274 31.8921 234.203 33.5442 234.557C37.4188 235.395 41.4155 239.742 44.9361 243.577C46.246 244.998 47.4772 246.34 48.5354 247.303C52.0836 250.529 55.9385 250.274 59.0383 250.07H59.0894C59.5615 250.037 59.9706 250.416 59.9981 250.921C60.0296 251.421 59.6677 251.854 59.1956 251.883L59.1484 251.887C58.3459 251.942 57.4687 252 56.5443 252Z" fill="#2E2020"/>
</g>
<defs>
<clipPath id="clip0_353_8573">
<rect width="243" height="315" fill="white"/>
</clipPath>
</defs>
</svg>
