<svg width="33" height="33" viewBox="0 0 33 33" fill="none" xmlns="http://www.w3.org/2000/svg">
<path d="M16.5 0C7.392 0 0 7.392 0 16.5C0 25.608 7.392 33 16.5 33C25.608 33 33 25.608 33 16.5C33 7.392 25.608 0 16.5 0ZM8.8275 27.225C10.989 25.674 13.629 24.75 16.5 24.75C19.371 24.75 22.011 25.674 24.1725 27.225C22.011 28.776 19.371 29.7 16.5 29.7C13.629 29.7 10.989 28.776 8.8275 27.225ZM26.631 24.948C23.8425 22.77 20.328 21.45 16.5 21.45C12.672 21.45 9.1575 22.77 6.369 24.948C4.455 22.6545 3.3 19.7175 3.3 16.5C3.3 9.207 9.207 3.3 16.5 3.3C23.793 3.3 29.7 9.207 29.7 16.5C29.7 19.7175 28.545 22.6545 26.631 24.948Z" fill="#333333"/>
<path d="M16.5001 6.59998C13.3156 6.59998 10.7251 9.19048 10.7251 12.375C10.7251 15.5595 13.3156 18.15 16.5001 18.15C19.6846 18.15 22.2751 15.5595 22.2751 12.375C22.2751 9.19048 19.6846 6.59998 16.5001 6.59998ZM16.5001 14.85C15.1306 14.85 14.0251 13.7445 14.0251 12.375C14.0251 11.0055 15.1306 9.89998 16.5001 9.89998C17.8696 9.89998 18.9751 11.0055 18.9751 12.375C18.9751 13.7445 17.8696 14.85 16.5001 14.85Z" fill="#333333"/>
</svg>
