<svg width="11" height="19" viewBox="0 0 11 19" fill="none" xmlns="http://www.w3.org/2000/svg">
<path d="M1.6603e-06 9.49581C0.00558255 9.30025 0.044649 9.12145 0.117201 8.95942C0.189753 8.79738 0.301371 8.64093 0.452056 8.49008L8.84018 0.360387C9.08016 0.120128 9.37595 -1.63934e-06 9.72755 -1.70082e-06C9.96195 -1.7418e-06 10.174 0.0558724 10.3638 0.167621C10.5591 0.279369 10.7126 0.430229 10.8242 0.620201C10.9414 0.810173 11 1.02249 11 1.25717C11 1.60359 10.8688 1.9081 10.6065 2.17071L3.02207 9.48743L10.6065 16.8125C10.8689 17.0807 11 17.3852 11 17.7261C11 17.9663 10.9414 18.1814 10.8242 18.3714C10.7126 18.5614 10.5591 18.7122 10.3638 18.824C10.174 18.9413 9.96195 19 9.72755 19C9.37596 19 9.08017 18.8771 8.84019 18.6312L0.452057 10.5015C0.295791 10.3507 0.181382 10.1942 0.10883 10.0322C0.0362777 9.86458 1.69352e-06 9.68578 1.6603e-06 9.49581Z" fill="#111111"/>
</svg>
