<svg width="15" height="17" viewBox="0 0 15 17" fill="none" xmlns="http://www.w3.org/2000/svg">
<path d="M7.59677 12.8895C8.76512 11.8255 9.6318 10.8588 10.1968 9.98934C10.7618 9.12028 11.0444 8.3485 11.0444 7.674C11.0444 6.6385 10.7115 5.79053 10.0457 5.13009C9.38032 4.47003 8.56401 4.14 7.59677 4.14C6.62954 4.14 5.81303 4.47003 5.14727 5.13009C4.48189 5.79053 4.14919 6.6385 4.14919 7.674C4.14919 8.3485 4.4317 9.12028 4.99672 9.98934C5.56174 10.8588 6.42843 11.8255 7.59677 12.8895ZM7.59677 14.4C6.05494 13.0985 4.90345 11.8895 4.1423 10.7731C3.38077 9.65703 3 8.624 3 7.674C3 6.249 3.46217 5.11375 4.3865 4.26825C5.31045 3.42275 6.38054 3 7.59677 3C8.813 3 9.88309 3.42275 10.807 4.26825C11.7314 5.11375 12.1935 6.249 12.1935 7.674C12.1935 8.624 11.813 9.65703 11.0518 10.7731C10.2903 11.8895 9.13861 13.0985 7.59677 14.4Z" fill="#F8CFB3"/>
<circle cx="7.59485" cy="7.22912" r="2.02258" fill="#F8CFB3"/>
</svg>
