<svg width="12" height="19" viewBox="0 0 12 19" fill="none" xmlns="http://www.w3.org/2000/svg">
<path d="M11.5 9.50419C11.4944 9.69975 11.4554 9.87855 11.3828 10.0406C11.3102 10.2026 11.1986 10.3591 11.0479 10.5099L2.65982 18.6396C2.41984 18.8799 2.12405 19 1.77245 19C1.53805 19 1.32598 18.9441 1.13622 18.8324C0.940893 18.7206 0.787417 18.5698 0.675799 18.3798C0.5586 18.1898 0.5 17.9775 0.5 17.7428C0.5 17.3964 0.631151 17.0919 0.893455 16.8293L8.47793 9.51257L0.893456 2.18747C0.631153 1.91928 0.500002 1.61476 0.500002 1.27393C0.500002 1.03367 0.558601 0.818555 0.675801 0.628583C0.787419 0.438611 0.940895 0.287751 1.13623 0.176004C1.32598 0.0586672 1.53805 -8.70901e-07 1.77245 -8.50409e-07C2.12405 -8.19672e-07 2.41984 0.122922 2.65982 0.36877L11.0479 8.49846C11.2042 8.64932 11.3186 8.80576 11.3912 8.9678C11.4637 9.13542 11.5 9.31422 11.5 9.50419Z" fill="#F3AF81"/>
</svg>
