<svg width="20" height="22" viewBox="0 0 20 22" fill="none" xmlns="http://www.w3.org/2000/svg">
<path d="M15.5 11.0042C15.4944 11.1997 15.4553 11.3785 15.3828 11.5406C15.3102 11.7026 15.1986 11.8591 15.0479 12.0099L6.65982 20.1396C6.41984 20.3799 6.12405 20.5 5.77245 20.5C5.53805 20.5 5.32598 20.4441 5.13622 20.3324C4.94089 20.2206 4.78742 20.0698 4.6758 19.8798C4.5586 19.6898 4.5 19.4775 4.5 19.2428C4.5 18.8964 4.63115 18.5919 4.89345 18.3293L12.4779 11.0126L4.89345 3.68747C4.63115 3.41928 4.49999 3.11476 4.49999 2.77393C4.49999 2.53367 4.55859 2.31856 4.67579 2.12858C4.78741 1.93861 4.94089 1.78775 5.13622 1.676C5.32597 1.55867 5.53805 1.5 5.77244 1.5C6.12404 1.5 6.41983 1.62292 6.65981 1.86877L15.0479 9.99846C15.2042 10.1493 15.3186 10.3058 15.3912 10.4678C15.4637 10.6354 15.5 10.8142 15.5 11.0042Z" fill="#F3AF81"/>
</svg>
