<svg width="19" height="28" viewBox="0 0 19 28" fill="none" xmlns="http://www.w3.org/2000/svg">
<path d="M15 14.0042C14.9944 14.1997 14.9554 14.3785 14.8828 14.5406C14.8102 14.7026 14.6986 14.8591 14.5479 15.0099L6.15982 23.1396C5.91984 23.3799 5.62405 23.5 5.27245 23.5C5.03805 23.5 4.82598 23.4441 4.63622 23.3324C4.44089 23.2206 4.28742 23.0698 4.1758 22.8798C4.0586 22.6898 4 22.4775 4 22.2428C4 21.8964 4.13115 21.5919 4.39345 21.3293L11.9779 14.0126L4.39345 6.68747C4.13115 6.41928 4 6.11476 4 5.77393C4 5.53367 4.0586 5.31856 4.1758 5.12858C4.28742 4.93861 4.44089 4.78775 4.63622 4.67601C4.82597 4.55867 5.03805 4.5 5.27245 4.5C5.62405 4.5 5.91984 4.62292 6.15982 4.86877L14.5479 12.9985C14.7042 13.1493 14.8186 13.3058 14.8912 13.4678C14.9637 13.6354 15 13.8142 15 14.0042Z" fill="#F3AF81"/>
</svg>
