<svg width="36" height="36" viewBox="0 0 36 36" fill="none" xmlns="http://www.w3.org/2000/svg">
<path d="M28.5 12C29.2956 12 30.0587 11.6839 30.6213 11.1213C31.1839 10.5587 31.5 9.79565 31.5 9C31.5 8.20435 31.1839 7.44129 30.6213 6.87868C30.0587 6.31607 29.2956 6 28.5 6H7.5C6.70435 6 5.94129 6.31607 5.37868 6.87868C4.81607 7.44129 4.5 8.20435 4.5 9C4.5 9.79565 4.81607 10.5587 5.37868 11.1213C5.94129 11.6839 6.70435 12 7.5 12M28.5 12H7.5M28.5 12V27C28.5 27.7956 28.1839 28.5587 27.6213 29.1213C27.0587 29.6839 26.2956 30 25.5 30H10.5C9.70435 30 8.94129 29.6839 8.37868 29.1213C7.81607 28.5587 7.5 27.7956 7.5 27V12M15 18H21" stroke="#F3AF81" stroke-width="3" stroke-linecap="round" stroke-linejoin="round"/>
</svg>
