<svg width="30" height="29" viewBox="0 0 30 29" fill="none" xmlns="http://www.w3.org/2000/svg">
<path d="M14.9999 21.3C14.9999 24.2824 12.5823 26.7 9.59993 26.7C6.61759 26.7 4.19993 24.2824 4.19993 21.3C4.19993 18.3177 6.61759 15.9 9.59993 15.9C12.5823 15.9 14.9999 18.3177 14.9999 21.3Z" fill="white"/>
<path fill-rule="evenodd" clip-rule="evenodd" d="M9.59993 17.4C7.44602 17.4 5.69993 19.1461 5.69993 21.3C5.69993 23.4539 7.44602 25.2 9.59993 25.2C11.7538 25.2 13.4999 23.4539 13.4999 21.3C13.4999 19.1461 11.7538 17.4 9.59993 17.4ZM2.69993 21.3C2.69993 17.4893 5.78917 14.4 9.59993 14.4C13.4107 14.4 16.4999 17.4893 16.4999 21.3C16.4999 25.1108 13.4107 28.2 9.59993 28.2C5.78917 28.2 2.69993 25.1108 2.69993 21.3Z" fill="#F3AF81"/>
<path d="M12.3 12.3C12.3 15.2823 9.88234 17.7 6.9 17.7C3.91766 17.7 1.5 15.2823 1.5 12.3C1.5 9.31765 3.91766 6.89998 6.9 6.89998C9.88234 6.89998 12.3 9.31765 12.3 12.3Z" fill="white"/>
<path fill-rule="evenodd" clip-rule="evenodd" d="M6.9 8.39998C4.74609 8.39998 3 10.1461 3 12.3C3 14.4539 4.74609 16.2 6.9 16.2C9.05391 16.2 10.8 14.4539 10.8 12.3C10.8 10.1461 9.05391 8.39998 6.9 8.39998ZM0 12.3C0 8.48922 3.08924 5.39998 6.9 5.39998C10.7108 5.39998 13.8 8.48922 13.8 12.3C13.8 16.1107 10.7108 19.2 6.9 19.2C3.08924 19.2 0 16.1107 0 12.3Z" fill="#F3AF81"/>
<path d="M20.4 6.9C20.4 9.88234 17.9824 12.3 15 12.3C12.0177 12.3 9.60003 9.88234 9.60003 6.9C9.60003 3.91766 12.0177 1.5 15 1.5C17.9824 1.5 20.4 3.91766 20.4 6.9Z" fill="white"/>
<path fill-rule="evenodd" clip-rule="evenodd" d="M15 3C12.8461 3 11.1 4.74609 11.1 6.9C11.1 9.05391 12.8461 10.8 15 10.8C17.1539 10.8 18.9 9.05391 18.9 6.9C18.9 4.74609 17.1539 3 15 3ZM8.10003 6.9C8.10003 3.08924 11.1893 0 15 0C18.8108 0 21.9 3.08924 21.9 6.9C21.9 10.7108 18.8108 13.8 15 13.8C11.1893 13.8 8.10003 10.7108 8.10003 6.9Z" fill="#F3AF81"/>
<path d="M28.5 12.3C28.5 15.2823 26.0823 17.7 23.0999 17.7C20.1176 17.7 17.6999 15.2823 17.6999 12.3C17.6999 9.31765 20.1176 6.89998 23.0999 6.89998C26.0823 6.89998 28.5 9.31765 28.5 12.3Z" fill="white"/>
<path fill-rule="evenodd" clip-rule="evenodd" d="M23.0999 8.39998C20.946 8.39998 19.1999 10.1461 19.1999 12.3C19.1999 14.4539 20.946 16.2 23.0999 16.2C25.2539 16.2 27 14.4539 27 12.3C27 10.1461 25.2539 8.39998 23.0999 8.39998ZM16.1999 12.3C16.1999 8.48922 19.2892 5.39998 23.0999 5.39998C26.9107 5.39998 30 8.48922 30 12.3C30 16.1107 26.9107 19.2 23.0999 19.2C19.2892 19.2 16.1999 16.1107 16.1999 12.3Z" fill="#F3AF81"/>
<path d="M25.8 21.3C25.8 24.2824 23.3824 26.7 20.4 26.7C17.4177 26.7 14.9999 24.2824 14.9999 21.3C14.9999 18.3177 17.4177 15.9 20.4 15.9C23.3824 15.9 25.8 18.3177 25.8 21.3Z" fill="white"/>
<path fill-rule="evenodd" clip-rule="evenodd" d="M20.4 17.4C18.2461 17.4 16.4999 19.1461 16.4999 21.3C16.4999 23.4539 18.2461 25.2 20.4 25.2C22.5539 25.2 24.3 23.4539 24.3 21.3C24.3 19.1461 22.5539 17.4 20.4 17.4ZM13.4999 21.3C13.4999 17.4893 16.5893 14.4 20.4 14.4C24.2108 14.4 27.3 17.4893 27.3 21.3C27.3 25.1108 24.2108 28.2 20.4 28.2C16.5893 28.2 13.4999 25.1108 13.4999 21.3Z" fill="#F3AF81"/>
<path d="M19.4999 15.4499C19.4999 18.1837 17.4852 20.3999 14.9999 20.3999C12.5147 20.3999 10.4999 18.1837 10.4999 15.4499C10.4999 12.7161 12.5147 10.4999 14.9999 10.4999C17.4852 10.4999 19.4999 12.7161 19.4999 15.4499Z" fill="white"/>
<path fill-rule="evenodd" clip-rule="evenodd" d="M14.9999 11.9999C13.4744 11.9999 11.9999 13.4068 11.9999 15.4499C11.9999 17.493 13.4744 18.8999 14.9999 18.8999C16.5255 18.8999 17.9999 17.493 17.9999 15.4499C17.9999 13.4068 16.5255 11.9999 14.9999 11.9999ZM8.99993 15.4499C8.99993 12.0254 11.5549 8.99993 14.9999 8.99993C18.445 8.99993 20.9999 12.0254 20.9999 15.4499C20.9999 18.8744 18.445 21.8999 14.9999 21.8999C11.5549 21.8999 8.99993 18.8744 8.99993 15.4499Z" fill="#F3AF81"/>
</svg>
