<svg width="33" height="33" viewBox="0 0 33 33" fill="none" xmlns="http://www.w3.org/2000/svg">
<path d="M26.844 14.7501V15.4856L26.1084 14.7501H26.844ZM24.7796 11.3877C24.569 11.5076 24.3749 11.6555 24.2028 11.8276C24.0307 11.9998 23.8828 12.1938 23.7628 12.4045L17.9144 6.55608L18.4228 6.04768L18.9312 5.53929L24.7796 11.3877ZM8.22084 11.3877L14.0692 5.53929L14.5776 6.04768L15.086 6.55608L9.23763 12.4045C9.11843 12.1952 8.97096 12.0009 8.79767 11.8276C8.62439 11.6543 8.43012 11.5069 8.22084 11.3877ZM6.15648 18.314L6.75494 17.7156L7.59398 16.8765V25.1251H6.15648V18.314ZM6.30374 27.1251H7.85718C7.94676 27.2835 8.05797 27.4304 8.18891 27.5614C8.31985 27.6923 8.46683 27.8035 8.62523 27.8931V29.4466C8.08155 29.2829 7.58124 28.9866 7.17245 28.5779C6.76366 28.1691 6.46744 27.6687 6.30374 27.1251ZM22.3752 29.5938H10.6252V28.1563H22.3752V29.5938ZM24.3752 29.4466V27.8931C24.5336 27.8035 24.6806 27.6923 24.8115 27.5614C24.9425 27.4304 25.0537 27.2835 25.1433 27.1251H26.6967C26.533 27.6687 26.2368 28.1691 25.828 28.5779C25.4192 28.9866 24.9189 29.2829 24.3752 29.4466ZM26.844 25.1251H25.4065V16.8765L26.2455 17.7156L26.844 18.314V25.1251ZM6.15648 15.4856V14.7501H6.89201L6.15648 15.4856Z" fill="#F3AF81" stroke="#F3AF81" stroke-width="2"/>
</svg>
